<svg xmlns="http://www.w3.org/2000/svg" width="47" height="48" fill="none" viewBox="0 0 47 48">
    <path fill="#E2002F" d="M25.979 33.184v3.4H1.47V6.544H26.03v4.871h1.725V3.704C27.755 1.674 26.08 0 24.05 0H3.755C1.675 0 0 1.674 0 3.704v40.592C0 46.326 1.674 48 3.704 48H24c2.03 0 3.704-1.674 3.704-3.704V33.184h-1.725zM1.47 4.567c0-1.675 1.37-3.045 3.045-3.045h18.419c1.674 0 3.044 1.37 3.044 3.045v.152H1.47v-.152zM25.98 43.383c0 1.674-1.37 3.044-3.044 3.044H4.514c-1.674 0-3.044-1.37-3.044-3.044v-5.024H26.03v5.024h-.051z"/>
    <path fill="#E2002F" d="M17.911 23.29l.457-9.438h8.93v3.095h-5.987l-.152 3.248c.811-.71 1.623-1.066 2.689-1.066 3.602 0 4.211 3.044 4.211 5.987 0 3.755-1.268 6.09-5.328 6.09-2.993 0-4.363-1.37-4.921-4.212v-1.32h3.653c.101.812-.102 2.487 1.218 2.639 1.522.152 1.522-1.979 1.522-2.841 0-1.066.152-3.45-1.522-3.45-.812 0-1.269.456-1.37 1.268h-3.4zM29.581 30.19v-9.742h2.284v7.763h2.79v1.929h-5.074v.05zM38.816 29.53c-.507.559-.964.863-1.776.863-1.167 0-1.877-.812-1.877-1.928 0-1.624.913-2.182 1.826-2.486.914-.305 1.776-.406 1.776-1.167 0-.406-.253-.761-.66-.761-.76 0-.76.507-.811 1.116h-2.08c-.051-.913.253-1.522.76-1.928.508-.406 1.218-.558 2.03-.558 2.03 0 2.79.609 2.79 2.232v4.465c0 .254.102.559.153.812h-2.03l-.1-.66zm-.05-2.84c-.407.202-.762.354-1.015.507-.254.203-.457.456-.457.913s.254.761.761.761c.609 0 .761-.66.761-1.116v-1.066h-.05zM44.905 25.066c-.05-.254-.05-.508-.102-.71-.101-.204-.253-.305-.558-.305-.406 0-.71.203-.71.609 0 .405.304.608.66.76 1.319.61 2.79.965 2.79 2.69 0 1.624-1.218 2.334-2.74 2.334-1.623 0-2.79-.71-2.689-2.435h1.979c0 .253 0 .507.152.76.102.204.305.356.609.356.457 0 .761-.203.761-.71 0-.204-.101-.406-.254-.559-.811-.456-1.978-.76-2.638-1.471-.355-.406-.508-.812-.508-1.37 0-1.573 1.269-2.233 2.69-2.233 1.522 0 2.689.761 2.638 2.385h-2.08v-.102z"/>
</svg>
